<?xml version="1.0" encoding="UTF-8"?>
<svg width="393px" height="393px" viewBox="0 0 393 393" version="1.1" xmlns="http://www.w3.org/2000/svg" xmlns:xlink="http://www.w3.org/1999/xlink">
    <!-- Generator: Sketch 51 (57462) - http://www.bohemiancoding.com/sketch -->
    <title>icons / active /graduated-1</title>
    <desc>Created with Sketch.</desc>
    <defs></defs>
    <g id="icons-/-active-/graduated-1" stroke="none" stroke-width="1" fill="none" fill-rule="evenodd">
        <g transform="translate(46.000000, 0.000000)" fill-rule="nonzero">
            <path d="M24.359,147.507 C30.371,147.507 35.284,142.659 35.284,136.582 L35.284,71.03 L58.169,79.175 L58.169,151.256 C58.169,157.268 63.017,162.181 69.094,162.181 L70.193,162.181 C75.494,201.745 109.433,232.322 150.419,232.322 C191.405,232.322 225.28,201.744 230.645,162.181 L231.485,162.181 C237.497,162.181 242.41,157.333 242.41,151.256 L242.41,79.176 L279.905,65.859 C290.119,61.98 288.956,47.952 279.905,45.301 L153.846,0.63 C151.454,-0.21 148.933,-0.21 146.606,0.63 L20.739,45.301 C16.408,46.853 13.499,50.925 13.499,55.58 L13.499,136.453 C13.434,142.594 18.283,147.507 24.359,147.507 Z M150.291,210.537 C121.394,210.537 97.281,189.656 92.109,162.246 L208.473,162.246 C203.365,189.657 179.252,210.537 150.291,210.537 Z M220.432,140.396 L79.955,140.396 L79.955,86.933 L146.541,110.594 C148.933,111.434 151.389,111.434 153.781,110.594 L220.367,86.933 L220.367,140.396 L220.432,140.396 Z M150.226,22.545 L243.511,55.644 L150.226,88.743 L56.941,55.644 L150.226,22.545 Z" id="Shape" fill="#1A237E"></path>
            <path d="M92.109,162.246 C97.216,189.656 121.329,210.537 150.291,210.537 C179.188,210.537 203.301,189.656 208.473,162.246 L92.109,162.246 Z" id="Shape"></path>
            <g id="Group" transform="translate(56.000000, 22.000000)" fill="#E5EDFF">
                <path d="M90.606,88.529 L24.02,64.869 L24.02,118.332 L164.561,118.332 L164.561,64.869 L97.846,88.53 C95.454,89.37 92.998,89.37 90.606,88.529 Z" id="Shape"></path>
                <polygon id="Shape" points="0.941 33.58 94.226 66.743 187.511 33.58 94.226 0.545"></polygon>
            </g>
            <path d="M267.43,370.796 C274.476,370.667 278.485,365.236 278.355,360 L278.355,326.642 C278.355,318.626 273.894,311.191 266.589,307.248 C231.033,287.983 190.759,277.511 150.161,276.735 C109.951,277.511 69.741,288.113 34.185,307.248 C26.945,311.191 22.419,318.626 22.419,326.642 L22.419,359.87 C22.419,365.882 27.267,370.795 33.344,370.795" id="Shape" fill="#5E7FEB"></path>
            <path d="M276.868,287.984 C238.209,267.103 194.573,255.661 150.032,254.82 C106.008,255.66 62.307,267.103 23.713,287.984 C9.426,295.742 0.44,310.481 0.44,326.513 L0.44,359.806 C0.44,377.842 15.115,392.517 33.151,392.517 L267.365,392.517 C285.207,392.517 300.076,378.165 300.076,359.806 L300.076,326.513 C300.141,310.545 291.22,295.677 276.868,287.984 Z M278.355,359.871 C278.484,365.172 274.476,370.538 267.43,370.667 L242.476,370.667 L242.476,353.148 C242.476,347.136 237.628,342.223 231.551,342.223 C225.474,342.223 220.561,347.071 220.561,353.148 L220.561,370.796 L79.955,370.796 L79.955,353.148 C79.955,347.136 75.107,342.223 69.03,342.223 C62.953,342.223 58.105,347.071 58.105,353.148 L58.105,370.796 L33.151,370.796 C27.139,370.796 22.226,365.948 22.226,359.871 L22.226,326.578 C22.226,318.562 26.687,311.127 33.992,307.184 C69.548,287.919 109.822,277.447 149.968,276.671 C190.631,277.447 230.841,288.049 266.396,307.184 C273.636,311.127 278.162,318.562 278.162,326.578 L278.162,359.871 L278.355,359.871 Z" id="Shape" fill="#1A237E"></path>
        </g>
    </g>
</svg>